HIERARCHY
ROOT Hips
{
  OFFSET -213.699 104.721 0.752556
  CHANNELS 6 Xposition Yposition Zposition Zrotation Xrotation Yrotation
  JOINT RightUpLeg
  {
    OFFSET -8.9458 -8.66707 0.101652
    CHANNELS 3 Zrotation Xrotation Yrotation
    JOINT RightLeg
    {
      OFFSET 0 -44.4227 1.3727
      CHANNELS 3 Zrotation Xrotation Yrotation
      JOINT RightFoot
      {
        OFFSET 0.253549 -42.0924 -1.46059
        CHANNELS 3 Zrotation Xrotation Yrotation
        JOINT RightToes
        {
          OFFSET 0.04 -4.41509 8.4991
          CHANNELS 3 Zrotation Xrotation Yrotation
          End Site
          {
            OFFSET -0.08 -0.137448 9.77979
          }
        }
      }
    }
  }
  JOINT Spine
  {
    OFFSET 0 11.8905 0
    CHANNELS 3 Zrotation Xrotation Yrotation
    JOINT Spine1
    {
      OFFSET 0 25.6574 0.127663
      CHANNELS 3 Zrotation Xrotation Yrotation
      JOINT HEad
      {
        OFFSET 0 8.73416 0.011341
        CHANNELS 3 Zrotation Xrotation Yrotation
        End Site
        {
          OFFSET -0.29 12.7742 2.51395
        }
      }
      JOINT LeftShoulder1
      {
        OFFSET 8.99 -0.362252 -0.22
        CHANNELS 3 Zrotation Xrotation Yrotation
        JOINT LeftArm
        {
          OFFSET 10.2827 -0.00337999 0.322123
          CHANNELS 3 Zrotation Xrotation Yrotation
          JOINT LeftForeArm
          {
            OFFSET 26.2597 0.099144 -1.42434
            CHANNELS 3 Zrotation Xrotation Yrotation
            JOINT LeftHand
            {
              OFFSET 22.0902 0.085362 1.02216
              CHANNELS 3 Zrotation Xrotation Yrotation
              End Site
              {
                OFFSET 13.419 -0.6 1.50291
              }
            }
          }
        }
      }
      JOINT RightShoulder
      {
        OFFSET -8.99 -0.362252 -0.22
        CHANNELS 3 Zrotation Xrotation Yrotation
        JOINT RightArm
        {
          OFFSET -10.2827 -0.00338 0.322123
          CHANNELS 3 Zrotation Xrotation Yrotation
          JOINT RightForeArm
          {
            OFFSET -26.364 0.099144 -1.42434
            CHANNELS 3 Zrotation Xrotation Yrotation
            JOINT RightHand
            {
              OFFSET -22.0324 0.085362 1.02216
              CHANNELS 3 Zrotation Xrotation Yrotation
              End Site
              {
                OFFSET -13.3284 -0.6 1.50291
              }
            }
          }
        }
      }
    }
  }
  JOINT LeftUpLeg
  {
    OFFSET 8.9458 -8.66707 0.101652
    CHANNELS 3 Zrotation Xrotation Yrotation
    JOINT LeftLeg
    {
      OFFSET 0 -44.4227 1.3727
      CHANNELS 3 Zrotation Xrotation Yrotation
      JOINT LeftFoot
      {
        OFFSET -0.253549 -42.0924 -1.46059
        CHANNELS 3 Zrotation Xrotation Yrotation
        JOINT LeftToes
        {
          OFFSET -0.04 -4.41509 8.4991
          CHANNELS 3 Zrotation Xrotation Yrotation
          End Site
          {
            OFFSET 0.08 -0.047448 9.77979
          }
        }
      }
    }
  }
}
MOTION
Frames:	19
Frame Time:	0.0333333
-208.139 104.438 -3.09176 -4.47879 0.470924 -89.5615 3.2209 1.05539 -0.597254 0.290389 9.60285 -17.9955 -4.59921 -3.06992 0.0376855 0.0462048 0.000530889 0.662642 -0.793094 -0.834327 0.47918 0.940924 7.35809 0.307898 7.92119 12.5889 -21.7932 -34.9407 -5.6198 17.1528 -70.8778 -58.1876 -33.9344 -171.138 72.5096 179.248 7.36424 9.21826 -6.63065 31.1222 -1.14419 -7.16311 42.2728 -2.87475 18.4844 5.45465 32.9022 15.2039 -0.270095 9.946 4.33299 -0.276461 -0.238428 0.839118 2.30442 14.376 5.76137 4.27548 -8.50679 0.0695329 -1.30511e-009 8.75254e-006 -1.47703e-008 
-208.241 104.42 -3.18929 -4.38333 0.487968 -89.0177 3.34459 1.0979 -0.527255 0.320714 9.48865 -18.5903 -4.58116 -3.1809 0.0367029 0.0462048 0.000530889 0.662642 -0.770441 -1.08769 0.511663 1.04058 7.66599 0.312722 8.23381 13.6941 -22.7884 -35.1272 -5.66976 17.2103 -73.4311 -57.1306 -35.9331 -171.207 72.4361 179.477 7.0603 9.25295 -6.53966 31.665 -1.24172 -7.37102 46.6252 -14.9558 19.5882 9.17605 46.8912 7.89707 0.0328075 9.96293 3.47596 -0.159533 -0.451611 0.762105 2.35801 14.6284 5.30608 4.08865 -8.66358 0.0722438 -1.30511e-009 8.75254e-006 -1.47703e-008 
-208.347 104.423 -3.24789 -4.31476 0.474017 -88.7465 3.36602 1.13933 -0.532413 0.349961 9.42314 -18.8326 -4.56452 -3.26991 0.0365606 0.0462048 0.000530889 0.662642 -0.627337 -1.14392 0.522285 0.895749 7.57203 0.355767 8.74054 15.0639 -23.9484 -35.1999 -5.65863 17.1592 -74.8786 -55.8327 -36.7058 -170.665 73.8891 178.404 7.97655 9.13086 -7.00513 32.1036 -1.18677 -7.18378 50.1828 -23.0396 19.8746 12.3126 57.0048 1.27696 0.578463 9.98811 2.21343 -0.143323 -0.482866 0.6795 2.43229 14.6273 5.00729 3.56086 -8.82564 0.0740784 -1.30511e-009 8.75254e-006 -1.47703e-008 
-208.486 104.432 -3.28262 -4.4376 0.382054 -88.7804 3.29515 1.37335 -0.623071 0.316445 9.40742 -18.7213 -4.64582 -3.33798 0.0368398 0.0462048 0.000530889 0.662642 -0.724844 -0.795904 0.531604 0.803744 7.68289 0.394766 9.5005 15.7187 -25.2897 -35.1646 -5.72783 17.3364 -75.0204 -53.462 -36.2243 -168.861 75.7294 174.75 7.03218 9.23979 -6.80877 32.9034 -1.37303 -7.57571 51.659 -25.5458 19.9546 14.2237 60.9965 -3.14743 0.618539 9.98388 1.68949 -0.234214 -0.120303 0.699977 2.4319 14.3603 5.05256 3.59075 -8.75613 0.0751216 -1.30511e-009 8.75254e-006 -1.47703e-008 
-208.533 104.425 -3.33794 -4.18674 0.472125 -88.465 3.45562 1.25023 -0.491986 0.344058 9.17557 -19.1824 -4.66463 -3.29484 0.0371176 0.0462048 0.000530889 0.662642 -1.00711 -0.772988 0.155775 0.812181 8.62919 0.0118782 10.2887 15.315 -26.0914 -35.1723 -6.06466 18.1403 -75.7678 -50.3305 -37.3332 -166.234 77.2081 170.229 8.2936 9.03224 -8.06209 34.1669 -1.88363 -8.72603 52.2322 -25.813 20.5942 14.9492 61.4781 -4.87978 0.572505 9.97207 1.05682 -0.0752175 -0.517301 0.642952 2.43689 14.5884 4.81175 3.70861 -8.7758 0.0752844 -1.30511e-009 8.75254e-006 -1.47703e-008 
-208.562 104.427 -3.37208 -3.69982 0.599147 -88.3672 3.6296 0.790346 -0.263855 0.344406 9.05353 -19.4828 -4.72403 -3.19475 0.0369772 0.0462048 0.000530889 0.662642 -1.29577 -0.689969 0.0839025 1.48099 7.89355 -0.215581 10.5479 16.024 -27.7883 -35.3961 -6.03917 17.9984 -75.4213 -48.2721 -36.6263 -163.813 77.8906 166.16 7.06869 9.17256 -8.08577 34.002 -1.90406 -8.78958 51.9864 -26.2587 18.4829 13.5468 59.7112 -3.74777 0.267001 9.95127 1.21598 0.0657155 -1.08174 0.619256 2.47412 14.6274 4.73525 3.91497 -8.728 0.0743334 -1.30511e-009 8.75254e-006 -1.47703e-008 
-208.704 104.46 -3.33471 -3.4413 0.560316 -88.9989 3.52015 0.568441 -0.213759 0.276138 9.08242 -18.879 -4.61432 -3.20888 0.0360054 0.0462048 0.000530889 0.662642 -1.62902 -0.794631 0.0940972 2.0885 7.31226 -0.344734 10.768 16.8765 -29.5188 -35.24 -5.67137 17.1778 -74.8483 -47.0297 -34.9082 -160.078 79.1064 161.075 7.30338 9.12049 -8.52859 33.4469 -1.64413 -8.21137 51.1957 -26.0206 15.9815 13.3121 57.918 -3.13889 -1.98246 9.82094 2.43678 -0.0410396 -0.979237 0.787279 2.42747 14.1808 5.16514 3.82217 -8.63183 0.0694281 -1.30511e-009 8.75254e-006 -1.47703e-008 
-208.812 104.492 -3.29331 -3.20095 0.513627 -89.819 3.40526 0.272173 -0.141682 0.174302 9.23781 -18.0554 -4.50622 -3.21326 0.033532 0.0462048 0.000530889 0.662642 -2.19631 -1.23253 -0.37322 1.96054 8.82948 -0.794799 11.5609 16.0866 -30.1985 -34.7166 -5.75367 17.5526 -75.6709 -44.4028 -36.3093 -157.868 79.3015 157.603 7.54894 9.06099 -9.05556 34.1277 -2.01355 -9.05089 51.1542 -25.0949 17.0674 13.6805 57.8233 -2.45346 -1.71448 9.83451 2.75375 -0.155005 -0.782441 0.984514 2.35447 13.5911 5.81871 3.87916 -8.37879 0.0600266 -1.30511e-009 8.75254e-006 -1.47703e-008 
-208.953 104.518 -3.25619 -2.80609 0.48768 -90.6468 3.30598 -0.169883 -0.052226 0.0735335 9.36289 -17.2452 -4.44599 -3.23785 0.02946 0.0462048 0.000530889 0.662642 -2.79627 -1.2841 -0.570707 2.34024 8.79623 -1.0717 12.2766 15.9621 -32.0334 -34.4127 -5.65323 17.4129 -76.5492 -42.9253 -37.3542 -158.802 78.6903 158.111 7.50232 9.06344 -9.11709 34.0071 -2.19735 -9.52569 50.5876 -24.1093 16.7698 13.8065 57.4072 -1.33555 -1.98128 9.81296 3.04724 -0.27547 -0.766973 1.03759 2.27202 13.0822 6.61437 3.48311 -8.25151 0.0525373 -1.30511e-009 8.75254e-006 -1.47703e-008 
-209.164 104.539 -3.1591 -2.50628 0.288708 -92.1572 3.13341 -0.493893 -0.0190114 -0.00876886 9.49188 -15.7921 -4.44289 -3.27552 0.0271776 0.0462048 0.000530889 0.662642 -3.10616 -1.7682 -0.698001 2.57205 9.19808 -1.25315 12.931 15.7241 -34.2915 -34.1208 -5.48733 17.11 -78.0092 -42.0256 -38.7797 -162.459 77.0475 162.078 8.08166 8.99056 -9.09403 33.3947 -2.05547 -9.25391 50.4384 -23.1181 16.2606 12.8143 56.3377 0.591272 -2.0948 9.80072 3.45436 -0.485769 -0.556742 1.11562 2.18445 12.5704 8.09765 3.6249 -8.14887 0.0495518 -1.30511e-009 8.75254e-006 -1.47703e-008 
-209.343 104.524 -3.09423 -2.33059 0.449928 -93.6919 3.19474 -0.685868 0.154155 -0.11347 9.58484 -14.4727 -4.40124 -3.31095 0.0247937 0.0462048 0.000530889 0.662642 -3.54167 -1.79553 -0.944361 3.26108 8.82744 -1.67275 13.2507 16.0015 -36.56 -33.9462 -5.20025 16.4451 -79.0089 -41.9623 -39.4138 -165.509 75.2497 165.698 8.66404 8.90847 -9.21848 32.6392 -1.72067 -8.51121 50.3185 -22.5449 15.6595 11.1195 55.6172 2.9081 -1.0979 9.87836 2.91944 -0.44771 -0.463774 1.2962 2.09595 12.6236 9.38554 3.12383 -8.3757 0.054901 -1.30511e-009 8.75254e-006 -1.47703e-008 
-209.555 104.497 -3.0489 -2.21389 0.70831 -95.2063 3.32702 -0.804531 0.268519 -0.0968351 9.76452 -13.0045 -4.24263 -3.33516 0.0176679 0.0462048 0.000530889 0.662642 -3.55918 -1.77149 -0.799818 3.60901 8.30535 -1.61292 14.149 16.0436 -40.3606 -33.4279 -4.51424 14.9126 -80.8262 -42.4143 -40.1191 -168.213 73.2474 169.71 8.00298 9.04361 -8.40946 32.6087 -1.79587 -8.7067 49.4083 -21.9987 15.1565 10.5393 54.8351 3.9343 -1.25942 9.86064 3.25659 -0.268742 -0.528829 1.5082 2.05077 13.1823 10.6747 2.5385 -8.88367 0.0656323 -1.30511e-009 8.75254e-006 -1.47703e-008 
-209.812 104.416 -3.01827 -2.06976 1.01829 -97.0319 3.50247 -1.10555 0.344379 -0.0692878 10.3411 -11.1119 -4.00157 -3.54535 -0.00026158 0.0462048 0.000530889 0.662642 -3.95457 -1.70382 -1.09836 4.27257 8.29553 -2.06171 15.2798 15.5567 -43.3637 -33.2996 -4.44841 14.7711 -82.6828 -42.4479 -42.1686 -170.234 70.8612 173.156 8.6824 8.95228 -8.56112 32.4923 -1.79141 -8.7071 49.3663 -21.4926 15.7038 11.4199 54.8879 3.09279 -2.86045 9.73348 4.1137 0.0559334 -0.746494 1.75238 1.88782 14.1785 12.1963 1.83628 -9.57024 0.0736562 -1.30511e-009 8.75254e-006 -1.47703e-008 
-210.012 104.261 -2.89239 -1.951 1.4344 -99.4269 3.78202 -1.64792 0.544015 -0.141826 11.3411 -8.87211 -3.84172 -3.9237 -0.0212845 0.0462048 0.000530889 0.662642 -3.54367 -1.25314 -1.24404 3.7613 8.27235 -2.10766 16.5021 14.887 -45.8818 -32.3343 -4.13016 14.2394 -84.178 -42.4152 -43.231 -170.979 69.642 174.886 8.69384 8.98511 -8.0407 32.8753 -2.04792 -9.31612 49.4333 -20.3436 16.5705 9.71417 53.927 5.42808 -1.22506 9.86552 2.99901 0.420959 -1.46425 1.91895 1.63081 16.3929 14.2706 1.08815 -10.5489 0.0755004 -1.30511e-009 8.75254e-006 -1.47703e-008 
-210.181 104.042 -2.77081 -1.89491 1.93002 -101.975 4.1106 -2.26232 0.702626 -0.211834 12.7088 -6.36678 -3.56842 -4.51827 -0.0524852 0.0462048 0.000530889 0.662642 -3.88317 -0.16953 -1.38644 4.88892 7.10586 -2.48729 17.0461 15.0445 -48.2011 -32.969 -4.36563 14.6638 -84.4764 -42.5564 -44.3361 -171.567 68.1705 176.114 8.1612 9.06692 -7.73489 32.2433 -1.85198 -8.90356 49.4454 -19.3547 16.0562 7.92205 51.5951 7.82596 -0.107173 9.94319 2.38318 0.86875 -2.60469 1.85226 1.35022 19.595 16.5419 -0.0492406 -11.5535 0.0530692 -1.30511e-009 8.75254e-006 -1.47703e-008 
-210.307 103.805 -2.55578 -1.91058 2.52369 -104.857 4.57556 -2.84217 1.08499 -0.552223 14.1591 -3.7616 -2.93534 -5.07119 -0.0878486 0.0462048 0.000530889 0.662642 -3.76246 0.831412 -1.52776 5.30085 6.64781 -2.70721 17.664 14.9372 -49.8815 -32.9792 -4.38874 14.719 -84.7335 -42.5938 -45.0304 -171.756 67.6002 176.659 8.33345 9.05508 -7.6149 32.3865 -1.95558 -9.15206 49.5583 -19.2621 17.0442 8.8296 52.229 6.78697 -1.25127 9.86645 3.44209 1.42018 -4.40782 1.79527 1.09688 24.3038 18.1865 -1.56341 -11.8078 -0.00072993 -1.30511e-009 8.75254e-006 -1.47703e-008 
-210.435 103.529 -2.2306 -1.82185 2.915 -107.866 4.91147 -3.75579 1.4992 -1.03075 15.9574 -1.14828 -2.41235 -5.71885 -0.118016 0.0462048 0.000530889 0.662642 -3.63103 1.78979 -1.62675 5.76547 5.9951 -2.8616 18.1713 14.7964 -51.342 -32.7489 -4.2569 14.4482 -84.9831 -42.8581 -45.2065 -171.749 67.6805 176.965 8.76004 9.0194 -7.4252 32.1223 -1.90716 -9.06464 49.5476 -18.3846 16.9676 7.70169 51.2809 8.27887 -1.0093 9.88394 3.49529 1.74387 -6.97784 1.1473 1.06228 30.1637 18.728 -3.17115 -11.2501 -0.0452937 -1.30511e-009 8.75254e-006 -1.47703e-008 
-210.761 103.264 -1.87393 -2.05874 3.71296 -110.752 5.35569 -3.97525 1.93924 -1.40219 17.5789 1.54024 -1.96312 -6.37326 -0.140914 0.0462048 0.000530889 0.662642 -3.25233 2.60843 -1.94135 6.17201 6.10519 -3.23359 18.0954 14.7385 -51.8878 -32.5664 -4.20916 14.377 -85.0775 -42.7956 -45.5442 -171.699 67.8846 176.979 8.65097 9.03783 -7.33283 32.2385 -1.93221 -9.11283 48.7365 -15.8892 17.0039 7.04447 48.7323 9.80031 -1.02573 9.88258 3.32029 2.35473 -9.11826 -0.145469 1.09091 36.2834 16.9195 -2.54686 -9.78073 -0.0108248 -1.30511e-009 8.75254e-006 -1.47703e-008 
-211.172 103.029 -1.35025 -2.28976 4.28183 -114.399 5.43595 -4.29834 2.59864 -1.85322 19.2607 4.77745 -1.17489 -7.04887 -0.161158 0.0462048 0.000530889 0.662642 -2.89763 3.61142 -1.95855 6.47991 5.62403 -3.26914 17.7598 14.9019 -52.2275 -32.8333 -4.29 14.5093 -84.8875 -43.0029 -45.5237 -171.773 67.6139 177.134 9.04648 8.99244 -7.35673 32.0586 -2.01739 -9.36178 48.294 -15.0416 17.3748 7.23738 47.8418 9.83952 -0.747459 9.90334 3.14402 2.37519 -10.8899 -2.50266 1.03129 41.6535 13.6905 0.471881 -8.15209 0.0380318 -1.30511e-009 8.75254e-006 -1.47703e-008 
